<?xml version="1.0" standalone="no"?>
<!DOCTYPE svg PUBLIC "-//W3C//DTD SVG 20010904//EN"
 "http://www.w3.org/TR/2001/REC-SVG-20010904/DTD/svg10.dtd">
<svg version="1.0" xmlns="http://www.w3.org/2000/svg"
 width="101.000000pt" height="81.000000pt" viewBox="0 0 101.000000 81.000000"
 preserveAspectRatio="xMidYMid meet">

<g transform="translate(0.000000,81.000000) scale(0.100000,-0.100000)"
fill="#000000" stroke="none">
<path d="M127 560 c-53 -99 -97 -187 -97 -195 0 -8 14 -39 30 -69 23 -41 36
-53 54 -53 23 0 23 0 -15 68 -22 38 -39 73 -39 79 0 11 60 128 141 275 22 41
37 75 32 75 -5 0 -52 -81 -106 -180z"/>
<path d="M339 608 c-9 -19 -9 -21 2 -10 7 6 36 12 65 12 29 0 56 -5 62 -12 5
-7 21 -53 34 -102 18 -70 28 -91 44 -97 21 -7 21 -6 -9 112 l-31 119 -78 0
c-70 0 -78 -2 -89 -22z"/>
<path d="M809 548 c-13 -18 -63 -102 -110 -187 -95 -171 -101 -176 -192 -169
l-42 3 -30 118 -30 118 -36 -48 c-20 -26 -64 -99 -98 -161 -67 -121 -70 -138
-31 -180 24 -25 34 -26 304 -13 135 6 160 10 172 25 7 10 10 25 7 34 -4 10 -2
13 5 8 8 -5 10 -1 5 10 -4 12 -3 15 5 10 7 -4 10 -2 7 6 -3 8 2 22 11 33 8 11
13 14 9 8 -3 -7 -4 -13 -1 -13 2 0 38 63 80 140 l76 139 -41 76 c-22 41 -42
75 -43 75 -1 0 -13 -14 -27 -32z m-303 -478 c153 4 210 2 207 -6 -3 -8 -71
-12 -217 -13 l-213 -2 -18 28 -18 28 24 -20 c23 -19 34 -20 235 -15z"/>
</g>
</svg>
